<?xml version="1.0" encoding="UTF-8"?>
<svg id="Layer_1" data-name="Layer 1" xmlns="http://www.w3.org/2000/svg" viewBox="0 0 186.01 21.96">
  <defs>
    <style>
      .cls-1 {
        fill: #231f20;
      }

      .cls-1, .cls-2 {
        stroke-width: 0px;
      }

      .cls-2 {
        fill: #d31e54;
      }
    </style>
  </defs>
  <g>
    <path class="cls-1" d="m6.29,6.94c.08,2.41.14,4.53.14,6.87,0,.46.21,1.03.49,1.25.21.17.53.26.96.27h.11v1.25h-.19c-.7,0-1.22-.22-1.53-.73h-.04c-.07.5-.17,1.01-.34,1.46-.3.49-.69.83-1.12,1.1-.62.41-1.34.61-2.03.61-.85,0-1.55-.29-2.03-.84-.45-.52-.69-1.26-.69-2.21,0-.82.26-1.64.65-2.46l.35.14c-.24.56-.41,1.13-.41,1.7s.16,1.07.5,1.51c.42.55,1,.79,1.69.79.65,0,1.2-.19,1.69-.46.48-.26.87-.57,1.06-.93.02-.11.07-.21.07-.64,0-1.52-.08-4.05-.29-7.86.29-.32.59-.62.9-.86l.08.05Z"/>
    <path class="cls-1" d="m8.14,15.33c.83,0,1.49-.03,1.92-.19.34-.13.56-.26.56-.43,0-.46-.47-1.42-.98-2.41.23-.42.48-.79.73-1.1h.05c.45.79.98,2.01.98,2.98,0,.73-.29,1.3-.68,1.82-.44.44-1.13.59-2.63.59h-.12c-.54,0-.68-.39-.68-.65,0-.23.16-.6.68-.6h.17Zm1.85,3.1c.4.29.79.64,1.17,1.04-.21.35-.48.67-.81.96-.38-.36-.76-.67-1.15-1.01.26-.35.53-.69.79-1Z"/>
    <path class="cls-1" d="m15.7,16.58h-.11c-.77,0-1.27-.16-1.67-.56-.6-.61-.61-1.3-.61-2.73,0-1.86-.11-3.8-.25-5.87.33-.36.63-.68.92-.91l.07.04c.16,2.14.16,4.67.16,7.07v.56c0,.62.35.91.73,1.04.24.09.5.11.62.11h.14v1.25Z"/>
    <path class="cls-1" d="m21.78,6.07c-.21.4-.47.8-.73,1.2-.5.13-1.04.29-1.57.48-1.04.36-2.1.79-3.21,1.28v.03l1.59.62-.23.49c1.5,1.22,2.51,2.46,2.51,3.49,0,.91-.24,1.63-.62,2.02-.62.55-1.59.91-3.41.91h-.39c-.54,0-.68-.39-.68-.65,0-.23.16-.6.68-.6h.62c1.01,0,1.94-.1,2.61-.51.35-.21.54-.41.54-.53,0-.44-.3-.96-.67-1.46-.43-.59-1.34-1.52-2.94-2.76-.28-.21-.35-.57-.35-.9,0-.2.1-.41.22-.62.11-.18.29-.37.73-.6,1.14-.58,3.01-1.22,5.25-1.95l.07.08Z"/>
    <path class="cls-1" d="m32.69,10.93c.67,1.28,1.04,2.52,1.04,4,0,.98-.3,2.08-.69,2.49-.84.89-2.1,1.48-3.25,1.48-1.84,0-3-1.22-3-2.96,0-1.24.39-2.1.84-2.84l.37.21c-.33.62-.55,1.38-.55,1.83,0,.83.27,1.35.65,1.7.42.39,1.11.65,1.85.65.78,0,1.75-.37,2.36-.85.43-.33.67-.62.67-.81,0-.67-.16-1.24-.3-1.73-.23-.77-.51-1.42-.82-1.92.23-.41.47-.82.75-1.23l.07-.02Zm-2.66-3.15c.4.29.79.64,1.17,1.04-.21.35-.48.67-.81.96-.38-.36-.76-.67-1.15-1.01.26-.35.53-.69.79-1Z"/>
    <path class="cls-1" d="m40.92,15.33v1.25h-.81c-.05.62-.33,1.39-.74,2-.75,1.14-1.84,1.67-2.35,1.67-.89,0-1.88-.41-2.81-.99l.17-.32c.38.21.85.35,1.44.35.99,0,1.88-.49,2.71-1.35.47-.48.79-.87.92-1.37h-.48c-1.99,0-3.01-.63-3.01-2,0-.66.21-1.17.5-1.57.37-.54.89-.94,1.5-.94.9,0,1.83,1.26,2.1,3.26h.87Zm-2.22-1.43c-.31-.35-.67-.55-1.04-.55-.55,0-1.1.47-1.1.86,0,.5.46.79,1.06.97.54.15,1.12.15,1.76.15-.11-.55-.35-1.06-.68-1.43Z"/>
    <path class="cls-1" d="m41.13,15.33c.75,0,1.53-.3,1.68-.86l.28-1.05.67-.49.06.07c-.14.5-.21.92-.21,1.13,0,.34.09.62.32.81.31.25.69.39,1.21.39h.18v1.25h-.22c-.96,0-1.68-.26-2.01-1h-.04c-.33.65-1.1,1-1.94,1h-.19c-.54,0-.68-.39-.68-.65,0-.23.16-.6.68-.6h.21Zm1.07-3.7c-.4-.38-.75-.69-1.14-1.02.25-.35.53-.67.77-.93.4.31.73.63,1.11,1.04-.27.39-.47.64-.74.9Zm1.88-.13c-.4-.38-.75-.69-1.14-1.02.25-.35.53-.67.77-.93.4.31.73.63,1.11,1.04-.27.39-.47.64-.74.9Z"/>
    <path class="cls-1" d="m45.54,15.33c.75,0,1.53-.3,1.68-.86l.28-1.05.67-.49.06.07c-.14.5-.21.92-.21,1.13,0,.34.09.62.32.81.31.25.69.39,1.21.39h.18v1.25h-.22c-.96,0-1.68-.26-2.01-1h-.04c-.33.65-1.1,1-1.94,1h-.19c-.54,0-.68-.39-.68-.65,0-.23.16-.6.68-.6h.21Zm1.7-5.9c.4.29.79.64,1.17,1.04-.21.35-.48.67-.81.96-.38-.36-.76-.67-1.15-1.01.26-.35.53-.69.79-1Z"/>
    <path class="cls-1" d="m49.9,15.33c.48,0,1.13-.05,1.74-.28-.16-.41-.21-.88-.21-1.34,0-.6.19-1.18.62-1.78.27-.37.58-.69.96-.91.03-.31.09-.64.18-.98h.08c.93.91,2.3,1.75,3.44,2.61.85.64,1.21,1.23,1.21,2.1,0,.97-.61,1.83-1.94,1.83-.81,0-2.05-.25-3.33-.66-1.08.45-1.92.66-2.68.66h-.22c-.54,0-.68-.39-.68-.65,0-.23.16-.6.68-.6h.18Zm4.63-1.66c0-.82-.59-1.55-1.01-1.55-.73,0-1.61,1.04-1.61,1.54,0,.31.36.77,1.07,1.13.48-.17,1.54-.59,1.54-1.12Zm1.72,1.82c.55,0,1.04-.19,1.04-.44,0-.63-.87-1.33-2.1-2.11-.08.78-.32,1.52-.75,2.28.53.18,1.1.27,1.82.27Z"/>
    <path class="cls-1" d="m64.87,15.33v1.25h-.81c-.05.62-.33,1.39-.74,2-.75,1.14-1.84,1.67-2.35,1.67-.89,0-1.88-.41-2.81-.99l.17-.32c.38.21.85.35,1.44.35.99,0,1.88-.49,2.71-1.35.47-.48.79-.87.92-1.37h-.48c-1.99,0-3.01-.63-3.01-2,0-.66.21-1.17.5-1.57.37-.54.89-.94,1.5-.94.9,0,1.83,1.26,2.1,3.26h.87Zm-2.22-1.43c-.31-.35-.67-.55-1.04-.55-.55,0-1.1.47-1.1.86,0,.5.46.79,1.06.97.54.15,1.12.15,1.76.15-.11-.55-.35-1.06-.68-1.43Z"/>
    <path class="cls-1" d="m65.04,15.33c.83,0,1.49-.03,1.92-.19.34-.13.56-.26.56-.43,0-.46-.47-1.42-.98-2.41.23-.42.48-.79.73-1.1h.05c.45.79.98,2.01.98,2.98,0,.73-.29,1.3-.68,1.82-.44.44-1.13.59-2.63.59h-.12c-.54,0-.68-.39-.68-.65,0-.23.16-.6.68-.6h.17Zm1,4.69c-.4-.38-.75-.69-1.14-1.02.25-.35.53-.67.77-.93.4.31.73.63,1.11,1.04-.27.39-.47.64-.74.9Zm1.37,1.94c-.4-.38-.75-.69-1.14-1.02.25-.35.53-.67.77-.93.4.31.73.63,1.11,1.04-.27.39-.47.64-.74.9Zm.52-2.07c-.4-.38-.75-.69-1.14-1.02.25-.35.53-.67.77-.93.4.31.73.63,1.11,1.04-.27.39-.47.64-.74.9Z"/>
    <path class="cls-1" d="m79.91,10.93c.67,1.28,1.04,2.52,1.04,4,0,.98-.3,2.08-.69,2.49-.84.89-2.1,1.48-3.25,1.48-1.84,0-3-1.22-3-2.96,0-1.24.39-2.1.84-2.84l.37.21c-.33.62-.55,1.38-.55,1.83,0,.83.27,1.35.65,1.7.42.39,1.11.65,1.85.65.78,0,1.75-.37,2.36-.85.43-.33.67-.62.67-.81,0-.67-.16-1.24-.3-1.73-.23-.77-.51-1.42-.82-1.92.23-.41.47-.82.75-1.23l.07-.02Zm-2.66-3.15c.4.29.79.64,1.17,1.04-.21.35-.48.67-.81.96-.38-.36-.76-.67-1.15-1.01.26-.35.53-.69.79-1Z"/>
    <path class="cls-1" d="m85.28,16.58h-.11c-.77,0-1.27-.16-1.67-.56-.6-.61-.61-1.3-.61-2.73,0-1.86-.11-3.8-.25-5.87.33-.36.63-.68.92-.91l.07.04c.16,2.14.16,4.67.16,7.07v.56c0,.62.35.91.73,1.04.24.09.5.11.62.11h.14v1.25Z"/>
    <path class="cls-1" d="m85.9,15.33c.37,0,.89-.05,1.45-.21v-.05c-.68-.45-1.14-1.06-1.14-1.91,0-.42.16-.84.42-1.28.46-.76,1.16-1.31,2.02-1.31.91,0,1.66.6,2.17,1.59l-.19.2c-.53-.45-1.04-.62-1.75-.62-1.04,0-1.79.48-1.79.82,0,.46.27.95.84,1.39.38.29.9.53,1.18.53.74,0,1.63-.3,2.79-.69l.05.05-.52,1.21c-1.53.55-2.28.62-3.47,1.02-.84.27-1.6.53-2.38.53h-.3c-.54,0-.68-.39-.68-.65,0-.23.16-.6.68-.6h.62Zm1.71-7.84c.4.29.79.64,1.17,1.04-.21.35-.48.67-.81.96-.38-.36-.76-.67-1.15-1.01.26-.35.53-.69.79-1Z"/>
    <path class="cls-1" d="m95.45,11.54l.69,1.32c.25.49.49,1.02.49,1.86v1.07c0,.87-.47,1.8-1.23,2.71-.6.62-1.12.89-1.61.89-.72,0-1.55-.26-2.51-.75l.11-.33c.3.1.65.18,1.08.18,1.38,0,2.78-1.19,3.43-2.64.08-.17.11-.32.11-.43,0-.17-.08-.35-.14-.52-.35-.78-.74-1.49-1.17-2.15.22-.42.45-.82.69-1.22h.06Z"/>
    <path class="cls-1" d="m100.93,16.58h-.11c-.77,0-1.27-.16-1.67-.56-.6-.61-.61-1.3-.61-2.73,0-1.86-.11-3.8-.25-5.87.33-.36.63-.68.92-.91l.07.04c.16,2.14.16,4.67.16,7.07v.56c0,.62.35.91.73,1.04.24.09.5.11.62.11h.14v1.25Z"/>
    <path class="cls-1" d="m101.75,15.33c.84,0,1.57-.03,2.13-.2.62-.19,1.15-.56,1.15-.81,0-.07,0-.15-.02-.21-.35.04-.75.04-1.1.04-1.13,0-2-.3-2.34-1.05-.09-.21-.15-.44-.15-.7,0-.72.26-1.44.73-1.92.39-.4.82-.65,1.26-.65.79,0,1.43.75,1.87,1.93.24.64.41,1.39.41,2.32,0,.62-.15,1.15-.48,1.54-.62.7-1.75.97-3.49.97h-.79c-.54,0-.68-.39-.68-.65,0-.23.16-.6.68-.6h.82Zm1.45-4.24c-.64,0-1.17.5-1.17.87,0,.79,1.29,1.04,2.83,1.03-.2-.93-.87-1.89-1.66-1.89Zm-.21-4.38c.4.29.79.64,1.17,1.04-.21.35-.48.67-.81.96-.38-.36-.76-.67-1.15-1.01.26-.35.53-.69.79-1Z"/>
    <path class="cls-1" d="m117.79,16.58c-.1.62-.21,1.16-.37,1.56-.5,1.12-1.92,1.9-3.28,1.9-1.89,0-2.84-1.29-2.84-3,0-1.05.32-2.04.77-2.73l.34.18c-.28.63-.47,1.24-.47,1.83,0,1.6,1.1,2.36,2.38,2.36,1.51,0,2.9-1.16,2.9-2.07,0-.62-.39-1.65-1.01-2.59.19-.34.37-.63.64-1.04h.04c.36.7.61,1.3.8,1.87.14.33.27.49.62.49.3,0,.58-.15.74-.27.19-.13.43-.38.57-.77l.25-.72.66-.3.04.05c-.21.67-.29,1.11-.29,1.43,0,.41.29.6.67.6.75,0,1.05-.7,1.2-1.3l.17-.68.71-.42.04.05c-.12.45-.23.98-.23,1.34,0,.77.76,1.02,1.69,1.02h.21v1.25h-.24c-1.21,0-1.87-.37-2.11-.92h-.06c-.55.64-1.14.92-1.71.92-.42,0-.89-.13-1.04-.81h-.06c-.33.5-.83.81-1.55.81h-.2Z"/>
    <path class="cls-1" d="m124.98,15.33c.75,0,1.53-.3,1.68-.86l.28-1.05.67-.49.06.07c-.14.5-.21.92-.21,1.13,0,.34.09.62.32.81.31.25.69.39,1.21.39h.18v1.25h-.22c-.96,0-1.68-.26-2.01-1h-.04c-.33.65-1.1,1-1.94,1h-.19c-.54,0-.68-.39-.68-.65,0-.23.16-.6.68-.6h.21Zm1.1,5.15c-.4-.38-.75-.69-1.14-1.02.25-.35.53-.67.77-.93.4.31.73.63,1.11,1.04-.27.39-.47.64-.74.9Zm1.88-.13c-.4-.38-.75-.69-1.14-1.02.25-.35.53-.67.77-.93.4.31.73.63,1.11,1.04-.27.39-.47.64-.74.9Z"/>
    <path class="cls-1" d="m129.34,15.33c.83,0,1.49-.03,1.92-.19.34-.13.56-.26.56-.43,0-.46-.47-1.42-.98-2.41.23-.42.48-.79.73-1.1h.05c.45.79.98,2.01.98,2.98,0,.73-.29,1.3-.68,1.82-.44.44-1.13.59-2.63.59h-.12c-.54,0-.68-.39-.68-.65,0-.23.16-.6.68-.6h.17Zm1.85,3.1c.4.29.79.64,1.17,1.04-.21.35-.48.67-.81.96-.38-.36-.76-.67-1.15-1.01.26-.35.53-.69.79-1Z"/>
    <path class="cls-1" d="m136.89,16.58h-.11c-.77,0-1.27-.16-1.67-.56-.6-.61-.61-1.3-.61-2.73,0-1.86-.11-3.8-.25-5.87.33-.36.63-.68.92-.91l.07.04c.16,2.14.16,4.67.16,7.07v.56c0,.62.35.91.73,1.04.24.09.5.11.62.11h.14v1.25Z"/>
    <path class="cls-1" d="m137.11,15.33c.75,0,1.53-.3,1.68-.86l.28-1.05.67-.49.06.07c-.14.5-.21.92-.21,1.13,0,.34.09.62.32.81.31.25.69.39,1.21.39h.18v1.25h-.22c-.96,0-1.68-.26-2.01-1h-.04c-.33.65-1.1,1-1.94,1h-.19c-.54,0-.68-.39-.68-.65,0-.23.16-.6.68-.6h.21Zm1.07-3.7c-.4-.38-.75-.69-1.14-1.02.25-.35.53-.67.77-.93.4.31.73.63,1.11,1.04-.27.39-.47.64-.74.9Zm1.88-.13c-.4-.38-.75-.69-1.14-1.02.25-.35.53-.67.77-.93.4.31.73.63,1.11,1.04-.27.39-.47.64-.74.9Z"/>
    <path class="cls-1" d="m141.46,15.33c.83,0,1.49-.03,1.92-.19.34-.13.56-.26.56-.43,0-.46-.47-1.42-.98-2.41.23-.42.48-.79.73-1.1h.05c.45.79.98,2.01.98,2.98,0,.73-.29,1.3-.68,1.82-.44.44-1.13.59-2.63.59h-.12c-.54,0-.68-.39-.68-.65,0-.23.16-.6.68-.6h.17Zm.96,5.15c-.4-.38-.75-.69-1.14-1.02.25-.35.53-.67.77-.93.4.31.73.63,1.11,1.04-.27.39-.47.64-.74.9Zm1.88-.13c-.4-.38-.75-.69-1.14-1.02.25-.35.53-.67.77-.93.4.31.73.63,1.11,1.04-.27.39-.47.64-.74.9Z"/>
    <path class="cls-1" d="m146.96,13.93c.03.84.38,1.5,1.6,1.5.76,0,1.41-.23,2.12-.63.13-.07.2-.16.2-.23,0-.53-.34-1.22-.92-1.86-.56-.6-1.3-1.12-1.99-1.47-.23-.12-.31-.24-.31-.36,0-.24.27-.75.5-1.11h.08c.79.48,1.68,1.2,2.33,2.01.6.74.97,1.49.97,2.31,0,.61-.16,1.18-.41,1.71-.87.52-1.8.91-2.71.91-1.11,0-1.88-.62-1.88-2.06,0-.16,0-.4.05-.71h.38Z"/>
  </g>
  <path class="cls-2" d="m161.78,14.97v-1.78h3.16v1.34c0,1.9-.29,3.38-.87,4.43-.58,1.05-1.4,1.58-2.45,1.58-.51,0-.99-.14-1.43-.43-.44-.29-.81-.73-1.11-1.33-.31-.6-.51-1.33-.62-2.21-.11-.87-.16-2.05-.16-3.52,0-2.67.24-4.62.71-5.85.47-1.23,1.22-1.85,2.25-1.85.57,0,1.1.27,1.58.8v-.56h1.78v4.78h-1.78c0-2.05-.39-3.08-1.18-3.08-.3,0-.52.14-.67.41s-.25.79-.32,1.56c-.07.77-.1,1.95-.1,3.53,0,1.73.03,2.98.09,3.78.06.79.16,1.33.31,1.62.15.28.38.42.7.42.46,0,.76-.3.9-.91.14-.61.21-1.51.21-2.71h-1.01Z"/>
  <path class="cls-2" d="m166.52,20.11v-1.78h1.1V7.17h-1.1v-1.78h4.38l.57,3.11c.08.44.15,1.03.23,1.77l.26,2.74h.06l.3-2.41c.12-.95.23-1.75.34-2.4l.46-2.8h4.4v1.78h-1.1v11.16h1.12v1.78h-4.33v-1.78h1.1v-7.46l.16-3.96h-.2l-.66,5.04-1.39,8.16h-.62l-1.36-7.56-.75-5.64h-.2l.12,3.95v7.48h1.1v1.78h-3.98Z"/>
  <path class="cls-2" d="m180.04,20.11v-5.06h1.78v1.36c0,.79.08,1.34.25,1.66.16.32.45.48.85.48.31,0,.57-.13.76-.39.19-.26.29-.61.29-1.04,0-.37-.07-.78-.2-1.21-.13-.44-.29-.8-.48-1.09s-.66-.91-1.42-1.88c-.79-.99-1.31-1.79-1.57-2.39-.26-.6-.39-1.31-.39-2.11,0-.96.22-1.75.65-2.36.43-.61.99-.92,1.67-.92.57,0,1.06.23,1.48.68v-.44h1.78v4.39h-1.78v-1.11c0-.61-.08-1.05-.23-1.32s-.4-.41-.74-.41c-.57,0-.86.36-.86,1.08,0,.42.08.84.26,1.28s.47.92.89,1.44l.92,1.13c1.38,1.72,2.08,3.36,2.08,4.92,0,1.02-.25,1.87-.75,2.54-.5.67-1.12,1.01-1.86,1.01-.61,0-1.13-.23-1.58-.7v.46h-1.78Z"/>
</svg>